<svg xmlns="http://www.w3.org/2000/svg" width="1400" height="150" viewBox="0, 0, 1400, 150"><g><path d="M574.5 88.5l.006-88.25M574.5 88.5l223-40" stroke="#000" stroke-opacity=".195" fill="none"/><path d="M168.5 137.5l182-44 3-86 106 122-108-37-115-92-68 137zM168.5 137.5L95.5.25.5 88.5l168 49zM459.5 129.5V.25s116 88.25 115 88.25-115 41-115 41zM797.5 48.5zM797.5 48.5l154 17-45-65M1347.5 42.5l53-35" stroke="#000" stroke-opacity=".195" fill="none"/><path d="M169 144.5c-4.142 0-7.5-3.358-7.5-7.5 0-4.142 3.358-7.5 7.5-7.5 4.142 0 7.5 3.358 7.5 7.5 0 4.142-3.358 7.5-7.5 7.5z" fill="#fff"/><path d="M169 144.5c-4.142 0-7.5-3.358-7.5-7.5 0-4.142 3.358-7.5 7.5-7.5 4.142 0 7.5 3.358 7.5 7.5 0 4.142-3.358 7.5-7.5 7.5z" stroke="#A0A0A0" fill="none"/><path d="M344.773 99.036c-3.057-2.795-3.27-7.54-.475-10.596 2.794-3.058 7.538-3.27 10.596-.476 3.057 2.795 3.27 7.54.475 10.596-2.796 3.058-7.54 3.27-10.597.476z" fill="#fff"/><path d="M344.773 99.036c-3.057-2.795-3.27-7.54-.475-10.596 2.794-3.058 7.538-3.27 10.596-.476 3.057 2.795 3.27 7.54.475 10.596-2.796 3.058-7.54 3.27-10.597.476z" stroke="#A0A0A0" fill="none"/><path d="M454.44 135.536c-3.058-2.795-3.27-7.54-.476-10.596 2.795-3.058 7.54-3.27 10.596-.476 3.058 2.795 3.27 7.54.476 10.596-2.795 3.058-7.54 3.27-10.596.476z" fill="#fff"/><path d="M454.44 135.536c-3.058-2.795-3.27-7.54-.476-10.596 2.795-3.058 7.54-3.27 10.596-.476 3.058 2.795 3.27 7.54.476 10.596-2.795 3.058-7.54 3.27-10.596.476z" stroke="#A0A0A0" fill="none"/><path d="M569.94 95.036c-3.058-2.795-3.27-7.54-.476-10.596 2.795-3.058 7.54-3.27 10.596-.476 3.058 2.795 3.27 7.54.476 10.596-2.795 3.058-7.54 3.27-10.596.476z" fill="#fff"/><path d="M569.94 95.036c-3.058-2.795-3.27-7.54-.476-10.596 2.795-3.058 7.54-3.27 10.596-.476 3.058 2.795 3.27 7.54.476 10.596-2.795 3.058-7.54 3.27-10.596.476z" stroke="#A0A0A0" fill="none"/><path d="M353.5 7.5l8-7.25M353.5 7.5l-62-7.25M689.5.25H702M797.5 48.5L674.5.25M797.5 48.5l67-48.25M951.5 65.5l66-65M1080.5.25l20 42.25-149 23M1185.5 48.5l-20-48M1100.5 42.5l18-42.25M1185.5 48.5l53-48.25M1347.5 42.5l-13-42" stroke="#000" stroke-opacity=".195" fill="none"/><path d="M946.44 71.536c-3.058-2.795-3.27-7.54-.476-10.596 2.795-3.058 7.54-3.27 10.596-.476 3.057 2.795 3.27 7.54.476 10.596-2.795 3.058-7.54 3.27-10.596.476z" fill="#fff"/><path d="M946.44 71.536c-3.058-2.795-3.27-7.54-.476-10.596 2.795-3.058 7.54-3.27 10.596-.476 3.057 2.795 3.27 7.54.476 10.596-2.795 3.058-7.54 3.27-10.596.476z" stroke="#A0A0A0" fill="none"/><path d="M792.44 54.036c-3.058-2.795-3.27-7.54-.476-10.596 2.795-3.058 7.54-3.27 10.596-.476 3.058 2.795 3.27 7.54.476 10.596-2.795 3.058-7.54 3.27-10.596.476z" fill="#fff"/><path d="M792.44 54.036c-3.058-2.795-3.27-7.54-.476-10.596 2.795-3.058 7.54-3.27 10.596-.476 3.058 2.795 3.27 7.54.476 10.596-2.795 3.058-7.54 3.27-10.596.476z" stroke="#A0A0A0" fill="none"/><path d="M1100.5 42.5l85 6" stroke="#000" stroke-opacity=".195" fill="none"/><path d="M1095.44 46.536c-3.058-2.795-3.27-7.54-.476-10.596 2.795-3.058 7.54-3.27 10.596-.476 3.057 2.795 3.27 7.54.476 10.596-2.795 3.058-7.54 3.27-10.596.476z" fill="#fff"/><path d="M1095.44 46.536c-3.058-2.795-3.27-7.54-.476-10.596 2.795-3.058 7.54-3.27 10.596-.476 3.057 2.795 3.27 7.54.476 10.596-2.795 3.058-7.54 3.27-10.596.476z" stroke="#A0A0A0" fill="none"/><path d="M1185.5 48.5l162-6" stroke="#000" stroke-opacity=".195" fill="none"/><path d="M1180.94 54.036c-3.058-2.795-3.27-7.54-.476-10.596 2.795-3.058 7.54-3.27 10.596-.476 3.057 2.795 3.27 7.54.476 10.596-2.795 3.058-7.54 3.27-10.596.476z" fill="#fff"/><path d="M1180.94 54.036c-3.058-2.795-3.27-7.54-.476-10.596 2.795-3.058 7.54-3.27 10.596-.476 3.057 2.795 3.27 7.54.476 10.596-2.795 3.058-7.54 3.27-10.596.476z" stroke="#A0A0A0" fill="none"/><path d="M1341.94 46.536c-3.058-2.795-3.27-7.54-.476-10.596 2.795-3.058 7.54-3.27 10.596-.476 3.057 2.795 3.27 7.54.476 10.596-2.795 3.058-7.54 3.27-10.596.476z" fill="#fff"/><path d="M1341.94 46.536c-3.058-2.795-3.27-7.54-.476-10.596 2.795-3.058 7.54-3.27 10.596-.476 3.057 2.795 3.27 7.54.476 10.596-2.795 3.058-7.54 3.27-10.596.476z" stroke="#A0A0A0" fill="none"/></g></svg>