<svg xmlns="http://www.w3.org/2000/svg" width="600" height="200" viewBox="0 0 600 200"><g fill="#fff"><path d="M94.682 129.854c-1.437-.767-2.283-1.523-2.533-2.283-1.017-5.83-1.398-12.968-1.144-21.42.675-19.438 1.18-33.846 1.52-43.227-.17-.676-.212-2.07-.127-4.18.166-1.775-.066-2.958-.697-3.55-.635-.592-1.313-1.14-2.032-1.647-.718-.51-1.5-.635-2.343-.382-3.807 2.2-5.752 6.762-5.835 13.69-.17 6.594-.254 9.973-.254 10.14.084 4.144.084 11.707 0 22.688 0 9.552.128 17.115.382 22.693.083 3.295.166 6.59.253 9.885.167 3.973.632 7.184 1.395 9.633 1.1 2.2 2.877 3.045 5.33 2.537 4.31-3.212 6.974-6.806 7.99-10.774.167-.51.253-.974.253-1.396 0-.846-.72-1.65-2.158-2.406zM281.367 122.316c-7.02 4.09-13.913 6.135-20.677 6.135-2.54 0-4.95-.296-7.23-.888-4.74-1.104-7.697-2.84-8.88-5.213 5.507-5.85 8.26-10.848 8.26-15.003 0-3.135-1.224-5.76-3.664-7.882-1.518-.762-3.032-1.143-4.546-1.143-1.432 0-3.054.3-4.862.9-1.812.602-2.736 1.146-4.244 2.204-1.633 1.146-3.524 2.694-4.788 4.302-1.434 1.863-2.403 3.54-2.908 5.02-.505 1.482-.756 2.945-.756 4.386 0 2.044.587 3.982 1.75 5.817-4.88 2.227-9.675 3.34-14.387 3.34-1.186 0-2.37-.04-3.553-.128-2.285-.682-3.68-2.47-4.188-5.36-.675-3.487-1.436-5.655-2.283-6.507-.76-.168-1.566-.255-2.408-.255-4.23 0-8.332 2.537-12.304 7.608-1.356.85-2.413 1.27-3.17 1.27-.597 0-1.06-.293-1.4-.89 0-9.47.168-14.502.51-15.098 18.508-13.62 31.503-28.042 38.982-43.266 7.48-15.226 11.22-27.534 11.22-36.924 0-8.12-2.408-14.97-7.228-20.555-3.127-1.86-7.017-2.79-11.666-2.79-3.215 0-6.553.424-10.015 1.27-8.546 5.038-15.053 12.737-19.534 23.077-.61.026-1.116.073-1.506.144-25.287 1.478-42.708 3.076-52.263 4.797-.848.328-2.35.533-4.507.613-2.155.083-3.698.372-4.626.86-.425-.166-.85-.253-1.27-.253-.675 0-1.607.19-2.79.572s-2.117.57-2.793.57c-.422 0-.847-.083-1.27-.254-1.182.933-3.253 1.44-6.214 1.525-2.96.083-5.033.465-6.216 1.14-1.86-.084-4.463.318-7.802 1.204-3.34.888-5.943 1.29-7.8 1.204l-6.724 1.65c-2.62.676-4.862 1.013-6.72 1.013-1.27.68-3.365 1.25-6.282 1.716s-5.01 1.034-6.278 1.71c-9.643 1.776-17.634 3.722-23.977 5.833-1.27.254-3.973 1.104-8.117 2.54-3.302 1.183-6.01 1.775-8.12 1.775-1.438 0-2.835-.22-4.185-.665-4.397.93-6.937 2.532-7.612 4.813-.083 1.86.464 3.8 1.647 5.825 1.183 2.025 2.664 3.038 4.44 3.038.676 0 1.608-.206 2.79-.62 1.184-.416 2.073-.668 2.665-.754 1.524-.917 3.807-1.707 6.85-2.372 3.55-.917 5.92-1.623 7.105-2.126 9.726-2.997 15.136-4.62 16.238-4.87 12.6-3.334 22.114-5.75 28.542-7.248 3.72-.583 10.738-2.04 21.058-4.373 8.708-1.914 15.813-3.123 21.31-3.623 5.415-1.25 9.516-2.042 12.307-2.377 3.722-.164 9.854-.83 18.396-1.997 7.61-1.084 13.7-1.666 18.27-1.75h3.296c1.096 0 2.81-.13 5.135-.396 1.332-.15 2.457-.257 3.385-.322-.354.727-.74 1.51-1.175 2.382-1.523 3.048-2.242 5.754-2.155 8.12-1.69 4.147-3 9.478-3.93 15.987-.592 5.585-1.226 11.21-1.902 16.877.263 3.638.396 7.15.396 10.533 0 6.088-.496 11.502-1.488 16.24-.663 3.13-1.53 5.962-2.6 8.503-.75 1.523-1.037 2.282-.868 2.282.083 0 .253-.04.508-.127h.507c1.095.932 1.814 2.37 2.154 4.312.167 1.524.34 3.09.51 4.692.84 2.2 2.786 3.466 5.834 3.808 1.69.166 3.084.088 4.187-.238 1.437-.172 3.465-1.02 6.09-2.55 2.11-1.27 3.887-1.78 5.325-1.527 4.906 3.116 10.317 4.67 16.24 4.67 5.358 0 13.03-1.81 19.762-4.48.67.65 1.424 1.288 2.26 1.908 3.55 2.626 7.82 4.53 12.814 5.72 2.874.676 6.004 1.02 9.387 1.02 5.58 0 13.15-1.11 22.708-3.325 1.52-.598 3.042-1.24 4.565-1.917 1.524-.68 2.37-1.79 2.54-3.325-.506-1.018-1.86-1.53-4.058-1.53zM184.23 97.363c-.386-.507-.448-1.1-.193-1.774-.087-1.862-.127-3.723-.127-5.585 0-5.754.508-12.565 1.527-20.43.932-6.685 1.864-13.325 2.8-19.925 1.68-5.44 3.18-10.04 4.5-13.807.353.196.698.402 1.02.632.93.337 2.96.007 6.09-.998 2.453-1.907 3.51-3.487 3.17-4.732-.506-1.66-1.86-3.112-4.06-4.357-.832-.08-1.626-.154-2.386-.22.11-.22.215-.433.317-.628 3.222-9.558 8.73-16.157 16.537-19.797 1.443-.254 2.715-.38 3.818-.38 3.05 0 5 1.016 5.85 3.045 2.46 6.095 3.602 11.72 3.436 16.88-.254 6.09-1.57 12.69-3.943 19.795-.682 2.032-3.097 8.12-7.253 18.273-4.58 6.008-9.16 12.013-13.74 18.018-5.512 7.025-10.767 12.608-15.772 16.752-.68 0-1.21-.254-1.59-.763zm56.912 18.355c-.926.76-1.515 1.103-1.77 1.015-1.095-1.438-1.432-4.73-1.008-9.893 1.263-2.453 2.4-3.68 3.41-3.68 1.176 0 1.892.72 2.147 2.154.254 3.725-.672 7.19-2.778 10.404zM314.414 133.28c-.254 0-.718.04-1.39.127-.674.084-1.18.126-1.513.126-1.096 0-1.895-.254-2.395-.762-1.853-1.437-2.775-3.723-2.775-6.85 0-.843.204-2.914.62-6.217 0-.51.06-1.33.187-2.474.122-1.142.186-2.01.186-2.602 0-1.86-.636-3.17-1.906-3.933-.848-.508-1.78-.762-2.795-.762-1.694 0-3.433.55-5.21 1.65-.932.252-1.695.38-2.285.38-1.697 0-2.588-1.483-2.67-4.452-.087-3.476-.722-5.596-1.905-6.36-1.273-.168-2.162-.084-2.67.254-.85.594-1.778 2.2-2.793 4.828-.43.848-1.147 2.71-2.163 5.59-.254.68-.38 1.396-.38 2.16 0 1.018.34 2.246 1.025 3.685 1.02 2.034 1.576 3.222 1.663 3.56-.172.508.427.762 1.792.762 2.304 0 5.636-.55 9.99-1.65 1.28.17 2.004.804 2.18 1.906-.665 4.07-.993 6.99-.993 8.774 0 4.402 1.307 7.71 3.92 9.916 3.712 1.268 6.877 1.352 9.49.254 2.36-2.297 3.687-3.83 3.985-4.594.293-.768.44-1.404.44-1.916.002-.933-.545-1.4-1.636-1.4zM357.887 157.836c-.003.014-.005.035-.005.068 0-.023.005-.045.005-.068zM432.35 140.82c-2.826.52-8.502 1.228-17.128 1.648-9.47.508-14.547.8-15.222.89-.93 0-2.41.27-4.44.823-2.03.548-3.47.823-4.313.823-.762 0-1.356-.126-1.777-.38-1.184-7.692-1.817-16.444-1.9-26.254 16.45-17.587 27.63-40.756 33.538-69.503.93-4.31 1.395-8.16 1.395-11.543 0-6.086-1.52-9.213-4.56-9.385-5.32-.255-10.468 1.69-15.45 5.832-2.952 2.537-6.71 6.804-11.27 12.807-8.778 11.582-13.168 25.783-13.168 42.602 0 .846.295 7.904.888 21.172.084 1.437.492 3.2.097 5.922-.4 2.763-4.027 4.723-6.442 6.04h-.026c-7.02 4.09-13.913 6.134-20.68 6.134-2.538 0-4.947-.297-7.23-.89-4.738-1.103-7.695-2.84-8.88-5.212 5.51-5.848 8.263-10.847 8.263-15.002 0-3.135-1.224-5.76-3.665-7.882-1.518-.762-3.032-1.143-4.547-1.143-1.433 0-3.054.3-4.862.9-1.81.603-3.406 1.377-4.914 2.435-1.632 1.145-2.853 2.464-4.115 4.07-1.433 1.863-2.402 3.54-2.906 5.02-.507 1.483-.757 2.946-.757 4.386 0 3.897 2.112 7.413 6.343 10.548 3.55 2.625 7.82 4.53 12.812 5.72 2.873.676 6.005 1.018 9.388 1.018 5.58 0 13.313-.494 22.707-3.324 2.318-.698 2.874-1.038 3.596-1.432 1.865-.747 4.677-1.916 5.188-2.372 0 0 .168 10.128.508 12.327.424 3.127.72 6.13.892 9.002l-.128.255c-3.636.843-7.315 1.646-11.034 2.41-4.058 1.182-7.316 3.04-9.77 5.576-.58.91-.87 1.9-.885 2.977.044-.19.378 1.605 1.01 5.393 8.787 14.283 17.872 26.078 27.257 35.375h3.932c1.69-.51 2.746-1.477 3.17-2.914.165-1.44.336-2.874.505-4.31-1.27-17.318-2.326-30.286-3.17-38.9.254-.422.76-.76 1.523-1.014.253-.088.928-.255 2.03-.51.844 0 2.748-.21 5.712-.63 15.23-2.283 23.438-3.296 24.62-3.043 1.86.084 5.33-.214 10.41-.888 0 0 2.28-.703 1.628-3.88-.403-1.93-3.423-1.83-4.17-1.695zm-41.475-66.598c1.697-13.785 5.306-24.103 10.828-30.952 3.908-3.89 7.263-6.43 10.064-7.613 1.272-.167 2.083.17 2.424 1.016.254 1.27.382 2.536.382 3.803 0 2.286-.512 5.077-1.53 8.375-1.784 5.753-2.717 8.797-2.804 9.134-3.313 13.028-6.157 22.625-8.535 28.798-3.654 9.302-8.11 16.62-13.377 21.944.85-11.503 1.698-23.002 2.55-34.504zm-58.534 41.496c-.924.76-1.514 1.103-1.768 1.015-1.098-1.438-1.434-4.73-1.01-9.893 1.264-2.453 2.4-3.68 3.41-3.68 1.177 0 1.893.72 2.146 2.154.255 3.725-.672 7.19-2.777 10.404zm40.514 55.294l-7.357-12.687c-.338-1.015-.04-1.86.89-2.535 2.284-.34 4.562-.724 6.847-1.144 2.708-.422 5.032-.55 6.978-.38l.254.38c1.605 15.73 2.748 25.963 3.426 30.7-4.996-6.257-8.672-11.035-11.038-14.334zM508.032 133.28c-.254 0-.72.04-1.39.127-.674.084-1.178.126-1.512.126-1.097 0-1.896-.254-2.397-.762-1.853-1.437-2.774-3.723-2.774-6.85 0-.843.202-2.914.618-6.217 0-.51.062-1.33.187-2.474.123-1.142.187-2.01.187-2.602 0-1.86-.635-3.17-1.905-3.933-.85-.508-1.78-.762-2.796-.762-1.693 0-3.43.55-5.208 1.65-.934.252-1.694.38-2.286.38-1.697 0-2.586-1.483-2.67-4.452-.086-3.476-.723-5.596-1.905-6.36-1.27-.168-2.16-.084-2.668.254-.85.594-1.776 2.2-2.793 4.828-.43.848-1.147 2.71-2.163 5.59-.255.68-.382 1.396-.382 2.16 0 1.018.34 2.246 1.025 3.685.134.267.26.515.376.753-5.047 1.658-9.917 2.496-14.608 2.496-2.2 0-4.293-.124-6.28-.374-1.99-.252-3.765-1.57-5.328-3.96-1.563-2.384-3.15-3.746-4.757-4.083-2.198-.337-4.398-.504-6.598-.504-6.68 0-12.388 1.73-17.124 5.188-4.31 3.207-6.47 6.666-6.47 10.377 0 2.275.975 4.132 2.92 5.564 2.364 1.77 5.24 2.657 8.624 2.657 6.09 0 13.953-3.007 23.597-9.02 5.242-.76 10.484-1.478 15.73-2.157 4.646-.71 8.62-1.643 11.935-2.797.302.12.78.18 1.44.18 2.306 0 5.64-.55 9.992-1.65 1.278.172 2.004.807 2.178 1.908-.663 4.07-.99 6.99-.99 8.773 0 4.403 1.307 7.713 3.92 9.916 3.71 1.27 6.876 1.353 9.49.256 2.358-2.3 3.687-3.833 3.983-4.595.295-.77.442-1.406.442-1.918 0-.93-.547-1.398-1.638-1.398zm-69.558-3.608c-2.372.93-5.21.72-8.51-.635-1.523-1.184-2.54-3.128-3.05-5.835.168-2.62 1.44-4.48 3.81-5.58.765.086 1.694.61 2.798 1.585 1.1.973 1.988 1.546 2.668 1.713 3.555 1.016 5.673 2.282 6.352 3.807-.427 2.198-1.782 3.845-4.068 4.945zM566.186 122.316c-7.02 4.09-13.912 6.135-20.677 6.135-2.54 0-4.95-.296-7.232-.888-4.74-1.104-7.696-2.84-8.878-5.213 5.506-5.85 8.26-10.848 8.26-15.003 0-3.135-1.225-5.76-3.664-7.882-1.52-.762-3.032-1.143-4.546-1.143-1.433 0-3.056.3-4.863.9-1.812.602-3.048 1.147-4.557 2.204-1.635 1.146-3.21 2.694-4.476 4.302-1.434 1.863-2.402 3.54-2.907 5.02-.506 1.482-.757 2.945-.757 4.386 0 3.896 2.112 7.412 6.344 10.546 3.55 2.627 7.82 4.53 12.812 5.72 2.875.677 6.004 1.02 9.387 1.02 5.58 0 13.15-1.11 22.707-3.325 1.52-.598 3.042-1.238 4.566-1.917 1.522-.682 2.37-1.79 2.538-3.325-.507-1.026-1.86-1.537-4.058-1.537zm-40.227-6.598c-.926.76-1.514 1.103-1.77 1.015-1.097-1.438-1.435-4.73-1.01-9.893 1.266-2.453 2.4-3.68 3.41-3.68 1.178 0 1.893.72 2.146 2.154.255 3.725-.67 7.19-2.777 10.404z"/></g><path fill="#fff" d="M528.497 71.24l-.05-.6-.098-.547-.3-1-.593-.947-.693-.797-.546-.45-.493-.302h-1.682l-.495.052-.793.198-.694.35-.643.4-.494.498-.793.7-.545.848-.298.848-.048.997.047.8.1.347.248.4.545.7.89.697 3.318 1.048 3.96-1.845.1-.75.05-.4.098-.35-.1-.598zM558.596 67.28l-.05-.6-.1-.547-.297-1-.594-.947-.694-.798-.546-.45-.493-.298h-1.68l-.497.05-.792.198-.695.35-.644.4-.495.497-.79.7-.545.848-.3.848-.047.998.048.8.1.35.247.4.545.695.89.7 3.318 1.05 3.96-1.847.1-.75.05-.398.098-.35-.098-.6zM542.754 43.517l-.05-.6-.1-.547-.296-1-.594-.946-.693-.798-.545-.45-.494-.3h-1.68l-.495.05-.792.2-.696.35-.642.4-.495.497-.792.7-.545.847-.3.85-.046.996.047.8.102.35.246.398.546.698.888.7 3.32 1.048 3.96-1.846.098-.75.05-.4.1-.35-.1-.598z"/></svg>