<svg xmlns="http://www.w3.org/2000/svg" width="500" height="500" viewBox="0, 0, 500, 500"><path d="M251 95.43q30.875 0 59.036 12.043 28.16 12.045 48.518 32.402 20.357 20.357 32.4 48.518Q403 216.553 403 247.43q0 30.874-12.045 59.034-12.044 28.16-32.4 48.518-20.36 20.357-48.52 32.402Q281.876 399.43 251 399.43q-30.875 0-59.036-12.046-28.16-12.045-48.518-32.402-20.357-20.357-32.4-48.518Q99 278.304 99 247.43q0-30.876 12.045-59.037 12.044-28.16 32.4-48.518 20.36-20.357 48.52-32.402Q220.124 95.43 251 95.43zm0 21.713q-32.232 0-61.24 15.268l32.91 32.91q13.91-4.75 28.33-4.75 14.42 0 28.33 4.75l32.91-32.91q-29.008-15.267-61.24-15.267zM135.982 308.67l32.91-32.91q-4.75-13.912-4.75-28.33 0-14.42 4.75-28.332l-32.91-32.91q-15.268 29.008-15.268 61.24 0 32.233 15.268 61.242zM251 377.714q32.232 0 61.24-15.268l-32.91-32.91q-13.91 4.75-28.33 4.75-14.42 0-28.33-4.75l-32.91 32.91q29.008 15.268 61.24 15.268zm0-65.143q26.973 0 46.058-19.083 19.085-19.085 19.085-46.058 0-26.975-19.085-46.06-19.085-19.084-46.058-19.084t-46.058 19.085q-19.085 19.085-19.085 46.06 0 26.972 19.085 46.057Q224.027 312.57 251 312.57zm82.107-36.81l32.91 32.91q15.27-29.01 15.27-61.24 0-32.234-15.27-61.242l-32.91 32.91q4.75 13.91 4.75 28.33 0 14.42-4.75 28.33z" fill="#fff"/></svg>