<svg xmlns="http://www.w3.org/2000/svg" width="500" height="500" viewBox="0, 0, 500, 500"><path d="M219.438 372.518q0-8.375-5.863-14.236-5.86-5.862-14.236-5.862-8.375 0-14.236 5.862-5.862 5.86-5.862 14.236 0 8.375 5.862 14.236 5.86 5.863 14.235 5.863 8.374 0 14.235-5.863 5.863-5.86 5.863-14.236zm0-241.18q0-8.373-5.863-14.234-5.86-5.862-14.236-5.862-8.375 0-14.236 5.862-5.862 5.86-5.862 14.235 0 8.374 5.862 14.235 5.86 5.863 14.235 5.863 8.374 0 14.235-5.863 5.863-5.86 5.863-14.236zm133.987 26.8q0-8.375-5.862-14.237-5.862-5.86-14.236-5.86t-14.236 5.86q-5.86 5.863-5.86 14.238 0 8.372 5.86 14.235 5.863 5.862 14.237 5.862 8.374 0 14.236-5.862 5.862-5.863 5.862-14.235zm20.098 0q0 10.886-5.443 20.2-5.443 9.318-14.655 14.552-.42 60.086-47.314 86.673-14.236 7.957-42.498 16.957-26.798 8.375-35.487 14.866-8.687 6.49-8.687 20.935v5.445q9.21 5.233 14.654 14.55 5.444 9.316 5.444 20.203 0 16.748-11.724 28.472-11.723 11.724-28.473 11.724t-28.473-11.724q-11.724-11.724-11.724-28.472 0-10.887 5.444-20.203 5.442-9.317 14.655-14.55V166.092q-9.213-5.233-14.655-14.55-5.444-9.316-5.444-20.203 0-16.75 11.724-28.473 11.724-11.724 28.472-11.724 16.75 0 28.472 11.724 11.724 11.724 11.724 28.472 0 10.886-5.444 20.203-5.443 9.316-14.654 14.55v104.05q11.305-5.444 32.24-11.933 11.514-3.56 18.32-6.177 6.803-2.616 14.76-6.49 7.954-3.873 12.352-8.268 4.395-4.398 8.478-10.678 4.082-6.282 5.862-14.55 1.78-8.27 1.78-19.157-9.213-5.234-14.656-14.55-5.444-9.316-5.444-20.202 0-16.75 11.724-28.474 11.725-11.723 28.473-11.723 16.75 0 28.473 11.724 11.723 11.724 11.723 28.474z" fill="#fff"/></svg>