<svg xmlns="http://www.w3.org/2000/svg" width="500" height="500" viewBox="0, 0, 500, 500"><path d="M220.75 358.643q0-7.307-5.115-12.42-5.114-5.116-12.42-5.116-7.307 0-12.42 5.115-5.116 5.114-5.116 12.42 0 7.308 5.114 12.422 5.114 5.115 12.42 5.115 7.307 0 12.42-5.116 5.116-5.114 5.116-12.42zm0-210.43q0-7.305-5.115-12.42-5.114-5.114-12.42-5.114-7.307 0-12.42 5.114-5.116 5.114-5.116 12.42 0 7.307 5.114 12.42 5.114 5.116 12.42 5.116 7.307 0 12.42-5.115 5.116-5.114 5.116-12.42zm116.904 23.383q0-7.307-5.114-12.422-5.115-5.114-12.42-5.114-7.308 0-12.422 5.114-5.115 5.115-5.115 12.422 0 7.305 5.115 12.42 5.114 5.115 12.42 5.115 7.307 0 12.422-5.114 5.114-5.115 5.114-12.42zm17.536 0q0 9.498-4.75 17.626-4.748 8.13-12.786 12.695-.365 52.425-41.28 75.623-12.423 6.942-37.082 14.795-23.38 7.307-30.962 12.97-7.58 5.663-7.58 18.266v4.75q8.037 4.567 12.786 12.696 4.75 8.128 4.75 17.627 0 14.613-10.23 24.842-10.228 10.23-24.842 10.23-14.613 0-24.842-10.23-10.23-10.23-10.23-24.842 0-9.5 4.75-17.627 4.75-8.13 12.787-12.695V178.537q-8.04-4.566-12.787-12.694-4.75-8.13-4.75-17.628 0-14.613 10.23-24.842 10.228-10.23 24.84-10.23 14.615 0 24.844 10.23 10.23 10.23 10.23 24.842 0 9.5-4.75 17.628t-12.787 12.694v90.785q9.864-4.75 28.13-10.41 10.046-3.107 15.984-5.39 5.936-2.283 12.878-5.663 6.94-3.38 10.777-7.214 3.834-3.837 7.396-9.316 3.562-5.48 5.115-12.695 1.553-7.216 1.553-16.715-8.037-4.566-12.786-12.695-4.75-8.128-4.75-17.626 0-14.614 10.23-24.843 10.23-10.23 24.842-10.23 14.612 0 24.84 10.23 10.23 10.23 10.23 24.843z" fill="#fff"/></svg>