<svg xmlns="http://www.w3.org/2000/svg" width="500" height="500" viewBox="0, 0, 500, 500"><path d="M250 88.5q32.805 0 62.726 12.797 29.92 12.798 51.55 34.427 21.63 21.63 34.426 51.55Q411.5 217.194 411.5 250q0 32.805-12.798 62.725-12.797 29.92-34.426 51.55-21.63 21.63-51.55 34.427Q282.806 411.5 250 411.5q-32.805 0-62.726-12.798-29.92-12.798-51.55-34.427-21.63-21.63-34.426-51.55Q88.5 282.805 88.5 250t12.798-62.726q12.797-29.92 34.426-51.55 21.63-21.63 51.55-34.427Q217.194 88.5 250 88.5zm0 23.07q-34.247 0-65.07 16.223l34.97 34.967q14.78-5.047 30.1-5.047 15.32 0 30.1 5.047l34.97-34.967Q284.245 111.57 250 111.57zm-122.207 203.5l34.968-34.97q-5.046-14.78-5.046-30.1 0-15.32 5.047-30.102l-34.967-34.967Q111.57 215.753 111.57 250q0 34.246 16.223 65.07zM250 388.427q34.246 0 65.07-16.222L280.1 337.24q-14.78 5.046-30.1 5.046-15.32 0-30.1-5.047l-34.97 34.966q30.823 16.222 65.07 16.222zm0-69.215q28.66 0 48.937-20.276Q319.214 278.66 319.214 250q0-28.66-20.277-48.937Q278.66 180.786 250 180.786q-28.66 0-48.937 20.277Q180.786 221.34 180.786 250q0 28.66 20.277 48.937Q221.34 319.213 250 319.213zm87.24-39.112l34.967 34.97Q388.43 284.245 388.43 250q0-34.248-16.223-65.07L337.24 219.9q5.046 14.78 5.046 30.102 0 15.32-5.047 30.1z" fill="#fff"/></svg>