<svg xmlns="http://www.w3.org/2000/svg" width="500" height="500" viewBox="0, 0, 500, 500"><path d="M334.826 166.198l6.898 14.647c14.37-6.775 53.54 15.17 87.003 39.225-15.38-1.94-35.185-3.62-58.587-3.76-57.993-.363-94.518 18.435-118.81 18.282-24.278-.153-60.577-19.397-118.584-19.754-23.393-.148-43.207 1.28-58.61 3.035 33.78-23.645 73.256-45.098 87.482-38.146l7.077-14.558C135.69 149.15 38.257 223.76 38.257 223.76l-.16 27.035s10.78 1.422 17.47 10.91c6.687 9.477.827 84.98 80.41 85.48 79.583.494 92.083-57.434 98.914-72.237 6.84-14.79 8.187-14.784 16.288-14.73 8.09.05 9.44.06 16.088 14.937 6.666 14.874 18.438 72.95 98.02 73.452 79.592.493 74.66-75.08 81.467-84.48 6.795-9.402 17.6-10.69 17.6-10.69l.17-27.034c.002-.007-96.5-75.824-129.697-60.208z" fill="#fff"/></svg>