<svg xmlns="http://www.w3.org/2000/svg" width="500" height="500" viewBox="0, 0, 500, 500"><path d="M317.688 360.482q-.85-3.223-4.072-.848-5.09 3.732-14.76 6.616-9.668 2.884-22.222 2.884-21.884 0-32.74-8.313-.85-.677-2.206-.677-1.867 0-4.41 2.036-1.19 1.016-1.274 2.713-.084 1.696 1.273 3.393 5.768 5.428 14.844 7.803 9.076 2.374 17.39 2.12 8.31-.255 16.794-.764 6.955-.678 14.334-3.477 7.38-2.8 11.027-5.09 3.647-2.29 4.835-3.478 2.036-2.036 1.188-4.92zm-6.617-19.51q-3.222-7.972-6.615-10.347-3.9-2.545-12.893-2.545-7.973 0-12.044 1.697-4.92 2.035-13.232 9.5-4.41 4.07-2.036 7.464 1.527 1.358 2.97.764 1.44-.593 5.342-3.986.51-.34 1.782-1.442 1.272-1.103 1.78-1.442.51-.34 1.697-1.188 1.19-.848 1.952-1.187.764-.34 2.12-.85 1.358-.508 2.546-.763 1.187-.254 2.8-.424 1.61-.17 3.476-.17 4.58 0 7.55 1.273 2.968 1.272 3.9 2.46.934 1.187 2.29 3.732 1.698 2.884 2.122 3.393.424.51 2.12-.17 3.902-2.035 2.375-5.767zm60.225-47.668q0-3.733-.85-7.55-.847-3.816-2.798-7.633-1.95-3.816-5.768-6.19-3.818-2.376-8.907-2.376-5.598 0-16.455 7.04t-21.884 14.165q-11.027 7.124-17.134 7.124-4.58.17-10.772-3.223-6.192-3.392-12.893-8.312-6.7-4.92-14.165-9.84-7.465-4.92-16.965-8.312-9.5-3.392-18.83-3.223-19.51.17-33.42 13.317-13.91 13.148-14.25 30.28-.34 19 12.554 27.823 4.92 3.393 10.602 4.835 5.683 1.442 17.558 1.442 9.67 0 22.392-5.514 12.724-5.513 22.733-12.044 10.01-6.532 20.357-11.96 10.348-5.43 15.777-5.26 4.41.17 11.025 5.345 6.616 5.174 12.13 11.366 5.513 6.192 11.536 11.45 6.023 5.26 9.416 5.43 5.937.508 9.924-2.376 3.986-2.884 9.415-10.687 4.75-6.956 7.21-17.134 2.46-10.18 2.46-17.982zm8.99-27.143q0 27.822-10.517 51.657-10.518 23.835-28.16 40.036-17.644 16.2-41.14 25.36-23.495 9.162-49.28 9.162-25.786 0-49.706-9.754t-41.986-26.633q-18.067-16.88-28.925-40.97-10.856-24.088-10.856-51.23 0-15.1 3.308-29.265 3.308-14.165 8.313-24.683 5.004-10.52 11.96-20.103 6.955-9.585 13.317-15.947 6.36-6.36 13.317-11.79 6.954-5.43 10.94-7.888 3.987-2.46 7.21-4.157 2.375-1.357 8.652-4.495 6.277-3.14 9.246-4.835 2.968-1.696 8.143-5.09 5.175-3.392 10.264-7.464 6.107-4.75 9.84-12.298 3.73-7.55 5.088-21.29 21.884 26.295 31.554 32.74 7.464 4.92 22.054 11.537 14.59 6.615 21.884 11.195 3.562 2.206 6.616 4.24 3.053 2.037 10.263 7.89t12.893 11.96q5.683 6.107 12.723 16.116 7.04 10.01 11.704 20.697 4.666 10.688 7.974 25.192t3.308 30.11z" fill="#fff"/></svg>