<svg xmlns="http://www.w3.org/2000/svg" width="500" height="500" viewBox="0, 0, 500, 500"><path d="M218.322 148.867V275.59c0 2.862-1.047 5.337-3.135 7.428-2.09 2.088-4.566 3.135-7.425 3.135v95.04c0 2.86-1.047 5.335-3.136 7.427-2.09 2.087-4.565 3.135-7.424 3.135h-84.48c-2.863 0-5.338-1.048-7.427-3.135-2.09-2.092-3.135-4.566-3.135-7.426V296.71l41.085-144.05c.77-2.528 2.476-3.794 5.116-3.794h69.962zm5.28-47.52v36.96H165.52v-36.96c0-1.54.495-2.807 1.485-3.797.99-.99 2.253-1.485 3.794-1.485h47.52c1.54 0 2.805.495 3.794 1.485.994.99 1.49 2.256 1.49 3.796zm47.52 47.52V265.03h-42.24V148.866h42.24zm63.363-47.52v36.96h-58.082v-36.96c0-1.54.496-2.807 1.485-3.797.99-.99 2.253-1.485 3.794-1.485h47.52c1.54 0 2.807.495 3.794 1.485.994.99 1.49 2.256 1.49 3.796zm63.362 195.363v84.48c0 2.86-1.047 5.335-3.138 7.426-2.092 2.09-4.564 3.135-7.423 3.135h-84.484c-2.86 0-5.335-1.045-7.423-3.134-2.093-2.09-3.136-4.565-3.136-7.425V286.15c-2.863 0-5.337-1.043-7.425-3.135-2.09-2.09-3.138-4.562-3.138-7.427v-126.72h69.962c2.642 0 4.345 1.267 5.115 3.795l41.087 144.05z" fill="#fff"/></svg>