<svg xmlns="http://www.w3.org/2000/svg" width="500" height="500" viewBox="0, 0, 500, 500"><path d="M323.823 377.663q-.926-3.515-4.44-.925-5.55 4.07-16.098 7.216-10.545 3.145-24.237 3.145-23.867 0-35.71-9.067-.923-.74-2.403-.74-2.037 0-4.81 2.22-1.297 1.11-1.39 2.96-.09 1.85 1.39 3.7 6.29 5.92 16.188 8.51 9.898 2.592 18.964 2.315 9.066-.278 18.317-.834 7.586-.74 15.634-3.792 8.05-3.052 12.026-5.55 3.978-2.5 5.273-3.793 2.22-2.222 1.296-5.367zm-7.217-21.277q-3.515-8.696-7.215-11.286-4.254-2.776-14.06-2.776-8.697 0-13.137 1.85-5.366 2.22-14.43 10.362-4.812 4.44-2.22 8.14 1.664 1.48 3.237.833 1.572-.648 5.827-4.35.555-.368 1.943-1.57 1.388-1.204 1.943-1.574.555-.37 1.85-1.296 1.295-.925 2.127-1.294.834-.37 2.314-.925 1.48-.554 2.775-.832 1.294-.277 3.052-.463 1.757-.184 3.792-.184 4.996 0 8.233 1.388 3.238 1.387 4.256 2.683 1.018 1.296 2.498 4.07 1.85 3.147 2.314 3.702.462.555 2.312-.186 4.256-2.22 2.59-6.29zm65.683-51.99q0-4.07-.927-8.234-.925-4.162-3.053-8.325-2.128-4.163-6.29-6.753-4.164-2.59-9.714-2.59-6.105 0-17.946 7.678-11.84 7.678-23.868 15.448-12.026 7.77-18.687 7.77-4.995.187-11.748-3.514-6.753-3.7-14.062-9.066-7.308-5.365-15.45-10.73-8.14-5.367-18.5-9.068-10.362-3.7-20.538-3.515-21.277.186-36.45 14.524-15.17 14.34-15.54 33.027-.37 20.722 13.69 30.344 5.367 3.7 11.565 5.274 6.198 1.572 19.15 1.572 10.545 0 24.42-6.013 13.88-6.013 24.795-13.136 10.916-7.124 22.202-13.044 11.285-5.92 17.206-5.736 4.81.185 12.025 5.83 7.217 5.642 13.23 12.395 6.013 6.753 12.582 12.49 6.568 5.733 10.268 5.92 6.476.554 10.824-2.592 4.347-3.145 10.268-11.655 5.18-7.587 7.864-18.687 2.683-11.102 2.683-19.612zm9.805-29.603q0 30.342-11.472 56.338-11.47 25.996-30.713 43.666-19.242 17.67-44.867 27.66-25.625 9.99-53.747 9.99-28.123 0-54.212-10.638-26.088-10.64-45.79-29.048-19.706-18.41-31.548-44.682-11.84-26.272-11.84-55.875 0-16.467 3.607-31.917 3.608-15.45 9.067-26.92 5.457-11.47 13.044-21.924 7.585-10.454 14.524-17.392 6.937-6.938 14.524-12.86 7.585-5.92 11.933-8.602 4.348-2.683 7.863-4.534 2.59-1.48 9.436-4.902 6.846-3.424 10.084-5.273 3.237-1.85 8.88-5.552 5.644-3.7 11.194-8.14 6.66-5.182 10.73-13.415 4.07-8.233 5.55-23.22 23.87 28.68 34.415 35.71 8.14 5.365 24.053 12.58 15.91 7.216 23.868 12.21 3.884 2.407 7.215 4.627 3.33 2.22 11.193 8.604 7.864 6.383 14.062 13.044 6.198 6.66 13.876 17.577 7.678 10.916 12.766 22.57 5.09 11.658 8.697 27.477 3.608 15.82 3.608 32.84z" fill="#fff"/></svg>