<svg xmlns="http://www.w3.org/2000/svg" width="1400" height="150" viewBox="0, 0, 1400, 150"><g fill="#fff" fill-opacity=".25"><path d="M459-.758l.803.61.33.25.96.733c1.054.8 2.276 1.73 3.652 2.778l13.028 9.922c13.477 10.268 26.955 20.548 39.534 30.16.186.14.186.14.372.283 16.24 12.41 29.738 22.752 39.578 30.337 8.278 6.393 4.213 3.24 12.197 9.454 1.342-1.487 2.657-1.624 4.545-2.014L574.006.25h1L575 81.65l1.174-.064c3.433 1.223 2.094.424 4.224 2.01 1.518 1.696.854.716 1.905 2.996L789.68 49.395c-.114-2.502-.326-1.42.34-3.292L674.318.715l.365-.93L790.357 45.16c.452-1.267.11-.543 1.238-2.058 2.524-2.524 3.772-2.368 7.08-2.516 3.432 1.223 2.093.424 4.223 2.01l.762.852L864.208-.155l.584.81-60.59 43.634c1.39 3.012 1.037 1.476 1.176 4.576l138.45 15.284c.98-2.757.324-1.61 1.767-3.548.982-.91.554-.604 1.196-1.025L906.09.785l.82-.57 40.717 58.813c1.465-.987 3.356-.873 5.047-.942 1.755.597 2.38.62 3.87 1.744L1017.15.144l.7.712-60.576 59.66c1.32 1.474.556.467 1.862 3.3l133.723-20.642c-.95-2.016-.1-4.446.767-6.272.232-.488.646-.866.968-1.3 1.072-.992.554-.604 1.505-1.228L1080.048.464l.904-.428 15.992 33.784c1.427-.768 3.16-.67 4.73-.734l.59.206c1.067.355.593.204 1.418.463l14.358-33.7.92.39-14.355 33.694c.86.624.43.305 1.292.955 1.8 1.86 3.332 4.792 2.384 7.453l69.813 4.928c-.11-1.764 1.055-3.1 2.002-4.374 1.21-1.12.554-.604 1.974-1.536L1165.037.692l.923-.384 17.007 40.814c1.338-.536 2.794-.478 4.207-.536l.59.206c1.623.424 2.237.75 3.55 1.74l46.85-42.652.672.74-46.84 42.643c1.286 1.236 1.753 2.728 1.83 4.428l145.37-5.383c-.442-2.89.215-4.443 1.9-6.705.88-.908 1.885-1.696 3.11-2.05L1334.023.65l.956-.296 10.19 32.928c2.24-.177 1.236-.122 3.006-.194l.59.206c1.673.43 2.284.786 3.633 1.803 1.39 1.554.855.717 1.664 2.473l46.164-30.485.55.834-46.29 30.57c1.1 2.16.353 4.585-.61 6.61-.234.49-.647.867-.97 1.3-2.98 3.262-8.04 3.49-11.302.508-1.667-1.864-.854-.718-2.185-3.605l-145.547 5.39c.328 1.98-.85 3.71-1.965 5.207-2.98 3.262-8.042 3.49-11.303.508-2.112-2.12-2.34-3.128-2.464-5.924l-70.205-4.954c-.742 2.08-.228 1.126-1.528 2.872-2.98 3.26-8.042 3.488-11.303.507-1.466-1.64-.854-.718-1.808-2.787L959.307 64.8c.442 2.824-.26 4.393-1.902 6.597-2.98 3.262-8.042 3.49-11.303.508-2.45-2.454-2.36-3.588-2.503-6.774L805.344 49.87c-1.154 3.237-.396 1.953-1.94 4.028-2.98 3.26-8.042 3.488-11.303.507-1.764-1.973-.854-.718-2.37-4.004L582.736 87.53c.86 1.868-.08 4.422-.863 6.068-.232.488-.645.866-.967 1.3-2.98 3.26-8.042 3.488-11.303.507-1.743-1.95-.854-.718-2.33-3.917-33.26 11.804-16.558 5.856-50.1 17.847l-.378.136c-12.524 4.485-25.918 9.29-39.297 14.094-7.2 2.587-3.678 1.32-10.57 3.798 1.153 2.2.44 4.646-.555 6.736-.232.488-.645.866-.967 1.3-2.98 3.26-8.042 3.488-11.303.507-2.006-1.913-2.73-4.342-2.516-7.08.037-.474.32-.896.48-1.344L357.59 95.116c-1.065 2.992-.36 1.778-1.852 3.782-2.98 3.262-8.04 3.49-11.302.508-1.62-1.813-.855-.718-2.1-3.417l-165.44 39.996L177 137c0 4.418-3.582 8-8 8s-8-3.582-8-8l.114-1.134L.36 88.98l-.846-.247.646-.6 95-88.25.476-.442.305.575 69.196 130.095c2.75-1.157 1.44-.866 3.864-1.11 2.05.207 1.114-.047 2.826.673L236.052.278l.276-.556.484.388 108.53 86.824c1.425-1.183 3.165-1.246 4.933-1.318l2.71-77.673L291.44.747l.116-.993 61.46 7.186.026-.727.5.574 7.62-6.907.672.74-7.638 6.922 100.736 115.94c1.174-1.04 2.58-1.19 4.066-1.308V-.758zM236.672 1.278L172.75 130.062c2.342.763 3.082 2.937 3.928 4.946L342.04 95.03c-.42-3.106.065-4.48 1.89-6.928l.59-.546L236.67 1.278zm-141.308-.22L1.486 88.267 161.368 134.9c1.347-3.202.392-1.766 2.906-4.28L95.364 1.06zm258.59 7.728l-2.68 76.893c1.937.573 2.37.72 3.957 1.915 2.37 2.378 2.354 3.433 2.492 6.508L452.4 126.54c.41-1.147.093-.457 1.195-1.938l.547-.506L353.955 8.786zM460 1.26v120.853l.674-.027c3.433 1.223 2.094.424 4.224 2.01 1.36 1.52.854.716 1.61 2.354l10.65-3.827c13.38-4.805 26.775-9.61 39.298-14.094l.38-.136c16.815-5.884 33.53-12.045 50.346-17.932-.428-2.203.298-4.19 1.605-5.946-7.95-6.186-3.904-3.05-12.14-9.41-9.838-7.583-23.334-17.924-39.576-30.334l-.37-.284c-12.58-9.61-26.056-19.89-39.533-30.158-4.717-3.593-9.097-6.93-13.028-9.92l-3.65-2.78-.49-.37zM702-.25v1h-12.5v-1H702z"/></g></svg>